<?xml version="1.0"?>
<svg xmlns="http://www.w3.org/2000/svg" width="50" height="50" viewBox="0 0 50 50">
    <path d="M 15.46875 6 C 15.24875 6 15.01775 6.08475 14.84375 6.21875 L 4.40625 14.21875 C 4.38925 14.23175 4.35975 14.237 4.34375 14.25 C 4.32775 14.264 4.3275 14.26625 4.3125 14.28125 C 4.2945 14.29925 4.266 14.32475 4.25 14.34375 C 4.209 14.38975 4.18625 14.448 4.15625 14.5 C 4.14525 14.519 4.10375 14.5425 4.09375 14.5625 L 0.09375 22.5625 C -0.09825 22.9475 -0.02375 23.41475 0.28125 23.71875 C 0.47325 23.91175 0.741 24 1 24 C 1.151 24 1.2955 23.97625 1.4375 23.90625 L 4 22.625 L 4 43 C 4 43.553 4.448 44 5 44 L 35 44 C 35.147 44 35.28125 43.96425 35.40625 43.90625 C 35.44025 43.89025 35.468 43.86275 35.5 43.84375 C 35.589 43.78975 35.683 43.73325 35.75 43.65625 C 35.762 43.64325 35.77025 43.638 35.78125 43.625 L 43.78125 33.625 C 43.92325 33.447 44 33.228 44 33 L 44 26.28125 L 41.09375 29.3125 C 40.90375 29.5115 40.648 29.625 40.375 29.625 C 40.338 29.625 40.287 29.629 40.25 29.625 C 39.938 29.59 39.661 29.394 39.5 29.125 L 34 19.90625 L 34 42 L 6 42 L 6 21 L 6 16 L 34 16 L 40.53125 26.96875 L 49.71875 17.71875 C 50.04275 17.39475 50.08075 16.894 49.84375 16.5 L 43.84375 6.5 C 43.83475 6.486 43.8225 6.4515 43.8125 6.4375 C 43.7835 6.3925 43.75475 6.3515 43.71875 6.3125 C 43.70975 6.3035 43.72775 6.29025 43.71875 6.28125 C 43.70275 6.26625 43.67225 6.264 43.65625 6.25 C 43.62025 6.219 43.6015 6.18325 43.5625 6.15625 C 43.5555 6.15225 43.53725 6.16025 43.53125 6.15625 C 43.50125 6.13625 43.4705 6.10975 43.4375 6.09375 C 43.4075 6.07875 43.37475 6.0735 43.34375 6.0625 C 43.28975 6.0425 43.2455 6.04225 43.1875 6.03125 C 43.1695 6.02825 43.144 6.003 43.125 6 C 43.11 5.998 43.0775 6.002 43.0625 6 C 43.0365 6 43.027 6 43 6 L 15.46875 6 z M 15.8125 8 L 40.59375 8 L 34.59375 14 L 7.96875 14 L 15.8125 8 z M 15 20 C 14.448 20 14 20.448 14 21 C 14 21.552 14.448 22 15 22 L 25 22 C 25.552 22 26 21.552 26 21 C 26 20.448 25.552 20 25 20 L 15 20 z"/>
</svg>
